# xmcd
#
# Track frame offsets:
#	150
#	13068
#	23052
#	34789
#	50317
#	59354
#	74804
#	83841
#	90569
#	104087
#	123893
#	130080
#	142501
#
# Disc length: 2048 seconds
#
# Revision: 0
# Processed by: cddbd v1.5.2PL0 Copyright (c) Steve Scherf et al.
# Submitted via: audiograbber 1.83.01
#
DISCID=a907fe0d
DTITLE=The Boxcar Rattle - The Boxcar Rattle
DYEAR=2012
DGENRE=Folk Punk
TTITLE0=Miscommunication
TTITLE1=All Of These Dreams
TTITLE2=Fellow Man
TTITLE3=Too Crazy For These Times
TTITLE4=Hallucinogens
TTITLE5=Some Things Some Things
TTITLE6=Who's At The Party?
TTITLE7=Proletarian Life
TTITLE8=Government
TTITLE9=Who Is God In This Picture?
TTITLE10=Policeman
TTITLE11=What Have I Thrown Away
TTITLE12=John The Revelator
EXTD=The Boxcar Rattle\n\nRoland Brown - Guitar, Vocals\nAlden Sharp - Bass\nIs
EXTD=aac Mawson - Drums \nRecorded, Engineered and Mixed by Warwick Donald at T
EXTD=he Keg Room, Wellington\nProduced by Warwick Donald, Isaac Mawson and Rola
EXTD=nd Brown\nSupporting Cast: Finnbar Johansson, Tristan Carter, Jesse Sheeha
EXTD=n, Harriet Ellis, Marco Brown, Hanna Olsen\n\nAll songs written by Roland 
EXTD=Brown and The Boxcar Rattle except John The Revelator\n\nAlbum art by Dan 
EXTD=Aston\n\nSpecial Thanks to Ben Hewitt
EXTT0=
EXTT1=
EXTT2=
EXTT3=
EXTT4=
EXTT5=
EXTT6=
EXTT7=
EXTT8=
EXTT9=
EXTT10=
EXTT11=
EXTT12=
PLAYORDER=
